HIERARCHY
ROOT Hips
{
	OFFSET 0.00000 0.00000 0.00000
	CHANNELS 6 Xposition Yposition Zposition Zrotation Yrotation Xrotation 
	JOINT LHipJoint
	{
		OFFSET 0 0 0
		CHANNELS 3 Zrotation Yrotation Xrotation
		JOINT LeftUpLeg
		{
			OFFSET 1.75344 -1.53157 0.77399
			CHANNELS 3 Zrotation Yrotation Xrotation
			JOINT LeftLeg
			{
				OFFSET 2.25415 -6.19323 0.00000
				CHANNELS 3 Zrotation Yrotation Xrotation
				JOINT LeftFoot
				{
					OFFSET 2.30342 -6.32861 0.00000
					CHANNELS 3 Zrotation Yrotation Xrotation
					JOINT LeftToeBase
					{
						OFFSET 0.10958 -0.30108 1.49206
						CHANNELS 3 Zrotation Yrotation Xrotation
						End Site
						{
							OFFSET 0.00000 -0.00000 0.77783
						}
					}
				}
			}
		}
	}
	JOINT RHipJoint
	{
		OFFSET 0 0 0
		CHANNELS 3 Zrotation Yrotation Xrotation
		JOINT RightUpLeg
		{
			OFFSET -1.81912 -1.53156 0.77399
			CHANNELS 3 Zrotation Yrotation Xrotation
			JOINT RightLeg
			{
				OFFSET -2.22882 -6.12365 0.00000
				CHANNELS 3 Zrotation Yrotation Xrotation
				JOINT RightFoot
				{
					OFFSET -2.21943 -6.09785 0.00000
					CHANNELS 3 Zrotation Yrotation Xrotation
					JOINT RightToeBase
					{
						OFFSET -0.18931 -0.52012 1.59379
						CHANNELS 3 Zrotation Yrotation Xrotation
						End Site
						{
							OFFSET -0.00000 -0.00000 0.84686
						}
					}
				}
			}
		}
	}
	JOINT LowerBack
	{
		OFFSET 0 0 0
		CHANNELS 3 Zrotation Yrotation Xrotation
		JOINT Spine
		{
			OFFSET -0.00200 1.66634 -0.14248
			CHANNELS 3 Zrotation Yrotation Xrotation
			JOINT Spine1
			{
				OFFSET -0.00875 1.64542 0.09514
				CHANNELS 3 Zrotation Yrotation Xrotation
				JOINT Neck
				{
					OFFSET 0 0 0
					CHANNELS 3 Zrotation Yrotation Xrotation
					JOINT Neck1
					{
						OFFSET 0.02257 1.59605 0.00839
						CHANNELS 3 Zrotation Yrotation Xrotation
						JOINT Head
						{
							OFFSET -0.10214 1.57530 -0.23335
							CHANNELS 3 Zrotation Yrotation Xrotation
							End Site
							{
								OFFSET -0.03588 1.60717 -0.08062
							}
						}
					}
				}
				JOINT LeftShoulder
				{
					OFFSET 0 0 0
					CHANNELS 3 Zrotation Yrotation Xrotation
					JOINT LeftArm
					{
						OFFSET 2.54983 1.10186 0.40078
						CHANNELS 3 Zrotation Yrotation Xrotation
						JOINT LeftForeArm
						{
							OFFSET 4.28840 -0.00000 0.00000
							CHANNELS 3 Zrotation Yrotation Xrotation
							JOINT LeftHand
							{
								OFFSET 3.06552 -0.00000 -0.00000
								CHANNELS 3 Zrotation Yrotation Xrotation
								JOINT LeftFingerBase
								{
									OFFSET 0 0 0
									CHANNELS 3 Zrotation Yrotation Xrotation
									JOINT LeftHandIndex1
									{
										OFFSET 0.75304 -0.00000 0.00000
										CHANNELS 3 Zrotation Yrotation Xrotation
										End Site
										{
											OFFSET 0.60712 -0.00000 0.00000
										}
									}
								}
								JOINT LThumb
								{
									OFFSET 0 0 0
									CHANNELS 3 Zrotation Yrotation Xrotation
									End Site
									{
										OFFSET 0.61639 -0.00000 0.61639
									}
								}
							}
						}
					}
				}
				JOINT RightShoulder
				{
					OFFSET 0 0 0
					CHANNELS 3 Zrotation Yrotation Xrotation
					JOINT RightArm
					{
						OFFSET -2.60909 1.35448 0.21802
						CHANNELS 3 Zrotation Yrotation Xrotation
						JOINT RightForeArm
						{
							OFFSET -4.52172 -0.00000 -0.00000
							CHANNELS 3 Zrotation Yrotation Xrotation
							JOINT RightHand
							{
								OFFSET -2.89140 -0.00000 0.00000
								CHANNELS 3 Zrotation Yrotation Xrotation
								JOINT RightFingerBase
								{
									OFFSET 0 0 0
									CHANNELS 3 Zrotation Yrotation Xrotation
									JOINT RightHandIndex1
									{
										OFFSET -0.68054 -0.00000 0.00000
										CHANNELS 3 Zrotation Yrotation Xrotation
										End Site
										{
											OFFSET -0.54867 -0.00000 0.00000
										}
									}
								}
								JOINT RThumb
								{
									OFFSET 0 0 0
									CHANNELS 3 Zrotation Yrotation Xrotation
									End Site
									{
										OFFSET -0.55705 -0.00000 0.55705
									}
								}
							}
						}
					}
				}
			}
		}
	}
}
MOTION
Frames: 11
Frame Time: .0083333
8.3569 14.692 13.5125 0 0 0 0 0 0 -21 0 0 0 0 0 0 0 0 0 0 0 0 0 0 21 0 0 0 0 0 0 0 0 0 0 0 0 0 0 0 0 0 0 0 0 0 0 -16 0 0 21 0 0 11 0 0 0 -8 0 0 0 0 0 0 0 0 0 0 0 0 0 0 0 0 0 0 0 0 8 0 0 0 0 0 0 0 0 0 0 0 0 0 0 0 0 0
8.3569 14.6920 13.5125 -178.3350 -1.6220 -176.7640 0.0000 0.0000 0.0000 -18.9189 -17.4508 -20.9254 7.1408 15.4493 49.4049 3.0992 -6.5062 -32.0400 4.3912 -12.6636 -38.1218 0.0000 0.0000 0.0000 24.5996 6.7573 -19.1581 -6.1195 -14.5432 45.4596 -2.2833 -10.9449 -34.1357 -0.2788 3.3963 -9.3840 3.1225 2.9042 10.9330 0.2800 4.3647 -3.9525 -2.2957 1.8885 -10.1885 -7.7341 -1.5621 -7.6802 7.0407 -2.0397 9.6151 3.3108 -0.9414 4.2765 0.0000 0.0000 0.0000 -81.6794 14.4814 32.2676 17.0348 -26.9037 -4.1031 -0.0000 -0.0000 9.3278 1.1700 -37.1297 -0.7063 -7.1250 0.0000 -0.0000 -17.2719 -5.6983 19.7819 0.0000 0.0000 0.0000 80.7634 -17.6701 39.5125 -20.4857 31.2231 -5.7810 0.0000 0.0000 0.4655 -17.1882 -46.4842 12.6432 7.1250 -0.0000 -0.0000 40.9029 -74.5219 -29.6359
8.3527 14.6905 13.5184 -178.3880 -1.5175 -176.7510 0.0000 0.0000 0.0000 -18.9833 -17.4275 -20.9698 7.1475 15.4548 49.4299 3.1046 -6.3507 -32.0879 4.4488 -12.7348 -38.3835 0.0000 0.0000 0.0000 24.5126 6.8891 -19.2428 -6.1594 -14.5810 45.6181 -2.3626 -10.6726 -34.3959 -0.2182 3.0071 -8.2987 2.9998 2.8609 10.9645 0.3376 4.2943 -3.8703 -2.1516 1.8678 -10.1331 -8.1908 -1.9911 -7.5109 7.3266 -2.6053 9.4926 3.4402 -1.2239 4.2636 -0.0000 -0.0000 0.0000 -81.6147 14.3408 31.8673 17.1122 -27.0054 -4.1381 -0.0000 -0.0000 9.2018 0.9966 -37.2129 -0.6028 -7.1250 0.0000 -0.0000 -17.3639 -5.7617 19.9149 -0.0000 -0.0000 0.0000 80.3756 -17.3259 39.4013 -20.8138 31.6104 -5.9520 0.0000 -0.0000 -0.2806 -16.2504 -47.1306 12.0587 7.1250 -0.0000 -0.0000 43.6823 -74.5884 -31.8742
8.3494 14.6863 13.5277 -178.3230 -1.3308 -176.6400 0.0000 0.0000 0.0000 -18.8748 -17.3612 -21.1970 7.1695 15.4730 49.5125 3.1320 -5.8408 -32.3027 4.6731 -13.0059 -39.3906 0.0000 0.0000 0.0000 24.5419 7.1209 -19.4095 -6.1885 -14.6086 45.7338 -2.4011 -10.4487 -34.4630 -0.1854 2.7735 -7.6488 2.9926 2.8474 10.9139 0.4001 4.2771 -3.8059 -2.0719 1.8657 -10.0383 -8.5525 -2.4139 -7.3991 7.5125 -3.1610 9.4112 3.5229 -1.5023 4.2735 0.0000 0.0000 0.0000 -81.4035 14.3369 31.7833 17.3853 -27.3630 -4.2629 -0.0000 -0.0000 8.9158 0.9246 -37.0977 -0.5577 -7.1250 0.0000 -0.0000 -17.3968 -5.6454 19.9242 0.0000 0.0000 0.0000 80.0787 -16.8798 39.2021 -20.9092 31.7222 -6.0021 0.0000 -0.0000 -0.3095 -15.7328 -47.6746 11.7650 7.1250 -0.0000 -0.0000 45.7831 -74.7295 -33.6711
8.3464 14.6832 13.5381 -178.3040 -1.0880 -176.5230 0.0000 0.0000 0.0000 -18.8095 -17.2415 -21.4327 7.1876 15.4878 49.5802 3.1317 -5.7419 -32.3146 4.6506 -12.9792 -39.2905 0.0000 0.0000 0.0000 24.5017 7.2335 -19.6609 -6.2174 -14.6358 45.8483 -2.3683 -10.4035 -34.2522 -0.2189 3.0119 -8.3118 2.9764 2.8515 10.9171 0.4161 4.2812 -3.7614 -2.0452 1.8713 -9.9932 -8.7723 -2.8002 -7.3223 7.5840 -3.6648 9.2916 3.5489 -1.7543 4.2717 0.0000 0.0000 0.0000 -81.1762 14.1925 31.6620 17.4686 -27.4714 -4.3013 -0.0000 -0.0000 8.6459 1.3967 -37.3077 -0.8466 -7.1250 0.0000 -0.0000 -17.1624 -5.8893 19.6964 0.0000 0.0000 0.0000 79.8103 -16.5558 39.0649 -21.0635 31.9023 -6.0834 0.0000 -0.0000 -0.3490 -15.4282 -47.7009 11.5369 7.1250 -0.0000 -0.0000 46.1425 -74.6296 -33.8714
8.3430 14.6827 13.5451 -178.3890 -0.9550 -176.4950 0.0000 0.0000 0.0000 -18.8953 -17.1999 -21.5187 7.2124 15.5082 49.6731 3.1255 -6.0044 -32.2454 4.4996 -12.7971 -38.6137 0.0000 0.0000 0.0000 24.3629 7.1957 -19.8277 -6.2485 -14.6649 45.9711 -2.4098 -10.0984 -34.2872 -0.1932 2.8306 -7.8074 2.9506 2.8219 11.1142 0.3514 4.2415 -3.7765 -2.1057 1.8481 -10.1249 -8.8959 -3.0673 -6.9923 7.7024 -4.0348 8.9696 3.5850 -1.9395 4.1549 0.0000 -0.0000 0.0000 -80.9311 14.0076 31.3225 17.3159 -27.2724 -4.2311 -0.0000 -0.0000 8.6504 1.6504 -37.6894 -1.0092 -7.1250 0.0000 -0.0000 -17.0484 -6.2776 19.6573 0.0000 -0.0000 0.0000 79.6549 -16.4117 38.9511 -21.2275 32.0930 -6.1704 0.0000 -0.0000 -0.7303 -15.5328 -47.4144 11.5653 7.1250 -0.0000 -0.0000 45.1949 -74.4944 -32.9944
8.3393 14.6803 13.5527 -178.4260 -0.8920 -176.4250 0.0000 0.0000 0.0000 -18.9045 -17.2150 -21.6941 7.2448 15.5346 49.7941 3.1233 -6.1098 -32.2200 4.4566 -12.7444 -38.4189 0.0000 0.0000 0.0000 24.2919 7.2721 -20.0035 -6.2828 -14.6969 46.1064 -2.4144 -10.0599 -34.2883 -0.1966 2.8556 -7.8771 3.0430 2.7682 11.3773 0.2678 4.1888 -3.8664 -2.2565 1.8054 -10.3701 -9.0140 -3.2838 -6.6558 7.8398 -4.3509 8.7795 3.6306 -2.1000 4.0736 0.0000 0.0000 0.0000 -80.6433 13.9527 30.9807 17.1805 -27.0951 -4.1692 -0.0000 -0.0000 8.8428 1.6750 -37.9049 -1.0292 -7.1250 0.0000 -0.0000 -17.0455 -6.4857 19.7088 0.0000 0.0000 0.0000 79.5189 -16.3891 39.0038 -21.3302 32.2118 -6.2250 0.0000 -0.0000 -1.1252 -16.1513 -46.8631 11.9329 7.1250 -0.0000 -0.0000 43.0090 -74.3799 -31.1666
8.3375 14.6723 13.5674 -178.3480 -0.8070 -176.2530 0.0000 0.0000 0.0000 -18.7238 -17.2231 -22.0817 7.2881 15.5698 49.9559 3.1232 -6.0742 -32.2236 4.4727 -12.7642 -38.4920 0.0000 0.0000 0.0000 24.3488 7.5384 -20.2828 -6.3212 -14.7326 46.2576 -2.3227 -10.4839 -34.0505 -0.2851 3.4342 -9.4899 3.1507 2.7139 11.4513 0.2792 4.1365 -3.8764 -2.2992 1.7716 -10.4215 -9.1183 -3.5162 -6.6346 7.8422 -4.6551 8.7606 3.6290 -2.2531 4.0934 -0.0000 -0.0000 0.0000 -80.4371 13.7902 30.7020 17.1637 -27.0730 -4.1616 -0.0000 -0.0000 8.8310 1.8097 -37.8956 -1.1118 -7.1250 0.0000 -0.0000 -16.9763 -6.4899 19.6227 -0.0000 -0.0000 0.0000 79.2668 -16.1731 39.0850 -21.5070 32.4153 -6.3195 0.0000 -0.0000 -1.4632 -16.2305 -46.6335 11.9490 7.1250 -0.0000 -0.0000 42.2842 -74.2604 -30.4989
8.3378 14.6675 13.5841 -178.2720 -0.7411 -176.0500 0.0000 0.0000 0.0000 -18.5282 -17.2696 -22.4858 7.3360 15.6084 50.1338 3.1290 -5.9825 -32.2676 4.5541 -12.8634 -38.8592 0.0000 0.0000 0.0000 24.3941 7.6899 -20.6261 -6.3606 -14.7689 46.4124 -2.3269 -10.4173 -34.0304 -0.2787 3.3954 -9.3815 3.1669 2.6552 11.3958 0.3408 4.0620 -3.8181 -2.2222 1.7403 -10.3317 -9.1214 -3.7447 -6.7008 7.6605 -4.9301 8.6960 3.5538 -2.3932 4.1049 0.0000 -0.0000 0.0000 -80.2117 13.5397 30.6667 17.2508 -27.1873 -4.2013 -0.0000 -0.0000 8.4862 2.2567 -38.0684 -1.3919 -7.1250 0.0000 -0.0000 -16.7568 -6.6993 19.4005 0.0000 -0.0000 0.0000 79.0125 -15.8030 38.9725 -21.6900 32.6249 -6.4179 0.0000 -0.0000 -1.6440 -15.9212 -46.5981 11.7090 7.1250 -0.0000 -0.0000 42.4924 -74.1214 -30.5451
8.3366 14.6656 13.5955 -178.2280 -0.5387 -175.9090 0.0000 0.0000 0.0000 -18.4122 -17.2064 -22.7838 7.3797 15.6435 50.2962 3.1397 -5.8625 -32.3415 4.6413 -12.9681 -39.2492 0.0000 0.0000 0.0000 24.3981 7.8511 -20.8880 -6.4006 -14.8057 46.5692 -2.4065 -9.9881 -34.1990 -0.1968 2.8567 -7.8800 3.1940 2.6431 11.3662 0.3851 4.0513 -3.7490 -2.1835 1.7386 -10.2395 -9.1492 -3.9162 -6.6837 7.4880 -5.1292 8.5585 3.4919 -2.4975 4.0743 0.0000 -0.0000 0.0000 -79.9750 13.3391 30.7424 17.3153 -27.2715 -4.2308 -0.0000 -0.0000 8.0987 2.5393 -38.4903 -1.5811 -7.1250 0.0000 -0.0000 -16.6349 -7.1313 19.3574 0.0000 -0.0000 0.0000 78.7446 -15.4556 38.9076 -21.8131 32.7651 -6.4844 0.0000 -0.0000 -1.9259 -15.8746 -46.2885 11.6157 7.1250 -0.0000 -0.0000 41.6935 -73.8998 -29.7406
8.3327 14.6600 13.6038 -178.2310 -0.2321 -175.8260 0.0000 0.0000 0.0000 -18.3903 -17.0654 -23.0098 7.4131 15.6701 50.4200 3.1460 -5.8404 -32.3786 4.5997 -12.9183 -39.0635 0.0000 0.0000 0.0000 24.3487 8.1984 -21.0348 -6.4443 -14.8455 46.7400 -2.4358 -9.8478 -34.2732 -0.1654 2.6205 -7.2238 3.2258 2.6768 11.3336 0.3752 4.0981 -3.6526 -2.2156 1.7643 -10.1078 -9.2583 -4.0216 -6.5042 7.5660 -5.2633 8.2535 3.5288 -2.5638 3.9685 -0.0000 0.0000 0.0000 -79.7209 13.0977 30.7261 17.2723 -27.2153 -4.2111 -0.0000 -0.0000 7.8109 2.2835 -38.7714 -1.4304 -7.1250 0.0000 -0.0000 -16.7794 -7.3734 19.6021 -0.0000 0.0000 0.0000 78.5463 -15.1078 38.7331 -21.9501 32.9206 -6.5587 0.0000 -0.0000 -2.1294 -15.3303 -46.3617 11.2215 7.1250 -0.0000 -0.0000 42.4324 -73.7465 -30.1837
